<svg id="Laag_1" data-name="Laag 1" xmlns="http://www.w3.org/2000/svg" viewBox="0 0 162.57 158.84"><title>btn-libary</title><path d="M41.61,29.81c0-6.18,0-11.76,0-17.35C41.67,7.21,44.48,4.1,49.69,4c11.06-.14,22.13,0,33.2,0,.88,0,2.11-.21,2.58.27,5.19,5.22,10.69,1.31,15.92.44,6.63-1.1,13.13-3,19.69-4.46,5-1.14,9.66,1.58,10.78,6.46q15.21,66.83,30.33,133.67c1.32,5.82-.84,9.31-6.69,10.73-9.86,2.4-19.73,4.76-29.64,6.94-6.93,1.52-10.26-.61-11.87-7.54Q103,103.26,92.12,56c-.09-.38-.3-.73-1-1v4.65q0,44.06,0,88.1c0,8.31-2.84,11.12-11.19,11.15q-12.84,0-25.68,0-21.58,0-43.18,0c-8,0-11-2.94-11-10.94Q0,94.32,0,40.74C0,33,3.14,29.83,11,29.82,21,29.8,31,29.81,41.61,29.81Zm8.13,120.64h33V37h-33Zm105-7.26c-8.6-37.33-17.09-74.13-25.62-111.12L96.61,39.63c8.56,37.16,17,73.9,25.58,111.05ZM8.21,150.35H41.4V63.24H8.21ZM49.77,28.5H82.45V12.28H49.77ZM95,31.76l32.17-7.44c-1.24-5.45-2.38-10.52-3.67-16.19l-32.3,7.45C92.49,21.12,93.68,26.2,95,31.76ZM8.41,54.4H41.34v-16c-10.23,0-20.2,0-30.16,0a26,26,0,0,0-3,.38c0,3.8,0,7.44,0,11.08C8.23,51.34,8.34,52.78,8.41,54.4Z"/></svg>