<svg id="Laag_1" data-name="Laag 1" xmlns="http://www.w3.org/2000/svg" viewBox="0 0 167.99 167.95"><title>btn-home</title><path d="M106,116.13h-44V157.2c0,10.68,0,10.68-10.54,10.68-15,0-30-.12-45,.07-4.65.05-6.57-1.45-6.54-6.32.13-32,0-64,.2-95.94a8.8,8.8,0,0,1,3-6.17c25.57-19.44,51.31-38.66,77-58,2.64-2,5-2.11,7.65-.08,25.8,19.42,51.66,38.74,77.38,58.27a8.37,8.37,0,0,1,2.73,5.82c.16,32.15.07,64.29.16,96.44,0,4.26-1.6,6-5.9,5.93-16.49-.13-33,0-49.46-.06-6,0-6.66-.61-6.67-6.54q0-20,0-40Zm53.62,43.5a11.24,11.24,0,0,0,.34-1.75c0-29.66.08-59.32-.09-89,0-1.73-1.5-4-3-5.08-23-17.39-46.08-34.58-69-52-2.87-2.19-4.64-2.38-7.64-.09Q45.79,37.91,11.05,63.6c-2.47,1.84-3.17,3.76-3.16,6.67.09,28.33.05,56.65.07,85,0,1.44.18,2.88.27,4.26H54c0-15.36.12-30.35-.08-45.33-.06-4.84,1.82-6.42,6.5-6.36,14.33.19,28.66.07,43,.07,10.57,0,10.57,0,10.57,10.65v41.1Z"/></svg>