<svg id="Laag_1" data-name="Laag 1" xmlns="http://www.w3.org/2000/svg" viewBox="0 0 158.86 158.84"><title>btn-search</title><path d="M98.19,108.21C68,129.86,32.66,122,13.76,98.86a60.25,60.25,0,0,1,3.71-80.75c21.83-22.2,56.39-24.29,81-4.61,22.62,18.05,32,53.31,10.13,84,1.1,1.18,2.21,2.44,3.4,3.64q21.85,21.87,43.75,43.72c3,3,4.09,6.36,1.93,10.19a6.9,6.9,0,0,1-8.5,3.37c-2-.6-3.76-2.22-5.28-3.73q-21.27-21.12-42.4-42.4C100.33,111.11,99.35,109.64,98.19,108.21ZM15.24,60.5c0,24.82,20.62,45.41,45.41,45.31a45.59,45.59,0,0,0,45.18-45.06C106,36,85.5,15.3,60.66,15.21A45.59,45.59,0,0,0,15.24,60.5Z"/></svg>